<mxfile host="app.diagrams.net" modified="2023-03-28T08:25:57.590Z" agent="Mozilla/5.0 (Windows NT 10.0; Win64; x64) AppleWebKit/537.36 (KHTML, like Gecko) Chrome/111.0.0.0 Safari/537.36 Edg/111.0.1661.54" etag="OlTACKwA9YazbBQVwW_g" version="21.1.1" type="google">
  <diagram id="C5RBs43oDa-KdzZeNtuy" name="Page-1">
    <mxGraphModel grid="1" page="1" gridSize="10" guides="1" tooltips="1" connect="1" arrows="1" fold="1" pageScale="1" pageWidth="583" pageHeight="827" math="0" shadow="0">
      <root>
        <mxCell id="WIyWlLk6GJQsqaUBKTNV-0" />
        <mxCell id="WIyWlLk6GJQsqaUBKTNV-1" parent="WIyWlLk6GJQsqaUBKTNV-0" />
        <mxCell id="UWJiNNdN70AS-o2rG8F8-38" value="Model" style="swimlane;fontStyle=1;align=center;verticalAlign=top;childLayout=stackLayout;horizontal=1;startSize=26;horizontalStack=0;resizeParent=1;resizeParentMax=0;resizeLast=0;collapsible=1;marginBottom=0;" vertex="1" parent="WIyWlLk6GJQsqaUBKTNV-1">
          <mxGeometry x="20" y="40" width="210" height="372" as="geometry" />
        </mxCell>
        <mxCell id="18G3RsU9iTLbcf2INUXE-13" value="- gameId: int" style="text;strokeColor=none;fillColor=none;align=left;verticalAlign=top;spacingLeft=4;spacingRight=4;overflow=hidden;rotatable=0;points=[[0,0.5],[1,0.5]];portConstraint=eastwest;" vertex="1" parent="UWJiNNdN70AS-o2rG8F8-38">
          <mxGeometry y="26" width="210" height="26" as="geometry" />
        </mxCell>
        <mxCell id="lMX_KvVGxbXyDX82zufX-8" value="- numPlayers: int&#xa;" style="text;strokeColor=none;fillColor=none;align=left;verticalAlign=top;spacingLeft=4;spacingRight=4;overflow=hidden;rotatable=0;points=[[0,0.5],[1,0.5]];portConstraint=eastwest;" vertex="1" parent="UWJiNNdN70AS-o2rG8F8-38">
          <mxGeometry y="52" width="210" height="26" as="geometry" />
        </mxCell>
        <mxCell id="UWJiNNdN70AS-o2rG8F8-39" value="- players : List&lt;Player&gt;" style="text;strokeColor=none;fillColor=none;align=left;verticalAlign=top;spacingLeft=4;spacingRight=4;overflow=hidden;rotatable=0;points=[[0,0.5],[1,0.5]];portConstraint=eastwest;" vertex="1" parent="UWJiNNdN70AS-o2rG8F8-38">
          <mxGeometry y="78" width="210" height="26" as="geometry" />
        </mxCell>
        <mxCell id="UWJiNNdN70AS-o2rG8F8-44" value="- board: Board" style="text;strokeColor=none;fillColor=none;align=left;verticalAlign=top;spacingLeft=4;spacingRight=4;overflow=hidden;rotatable=0;points=[[0,0.5],[1,0.5]];portConstraint=eastwest;" vertex="1" parent="UWJiNNdN70AS-o2rG8F8-38">
          <mxGeometry y="104" width="210" height="26" as="geometry" />
        </mxCell>
        <mxCell id="lMX_KvVGxbXyDX82zufX-7" value="- turnId : int" style="text;strokeColor=none;fillColor=none;align=left;verticalAlign=top;spacingLeft=4;spacingRight=4;overflow=hidden;rotatable=0;points=[[0,0.5],[1,0.5]];portConstraint=eastwest;" vertex="1" parent="UWJiNNdN70AS-o2rG8F8-38">
          <mxGeometry y="130" width="210" height="26" as="geometry" />
        </mxCell>
        <mxCell id="UWJiNNdN70AS-o2rG8F8-47" value="- firstToEnd : int" style="text;strokeColor=none;fillColor=none;align=left;verticalAlign=top;spacingLeft=4;spacingRight=4;overflow=hidden;rotatable=0;points=[[0,0.5],[1,0.5]];portConstraint=eastwest;" vertex="1" parent="UWJiNNdN70AS-o2rG8F8-38">
          <mxGeometry y="156" width="210" height="26" as="geometry" />
        </mxCell>
        <mxCell id="lMX_KvVGxbXyDX82zufX-12" value="- firstToStart: int" style="text;strokeColor=none;fillColor=none;align=left;verticalAlign=top;spacingLeft=4;spacingRight=4;overflow=hidden;rotatable=0;points=[[0,0.5],[1,0.5]];portConstraint=eastwest;" vertex="1" parent="UWJiNNdN70AS-o2rG8F8-38">
          <mxGeometry y="182" width="210" height="26" as="geometry" />
        </mxCell>
        <mxCell id="UWJiNNdN70AS-o2rG8F8-45" value="- commonGoals[2]: CommonGoal" style="text;strokeColor=none;fillColor=none;align=left;verticalAlign=top;spacingLeft=4;spacingRight=4;overflow=hidden;rotatable=0;points=[[0,0.5],[1,0.5]];portConstraint=eastwest;" vertex="1" parent="UWJiNNdN70AS-o2rG8F8-38">
          <mxGeometry y="208" width="210" height="26" as="geometry" />
        </mxCell>
        <mxCell id="UWJiNNdN70AS-o2rG8F8-46" value="- finalPoints: List&lt;Integer&gt;" style="text;strokeColor=none;fillColor=none;align=left;verticalAlign=top;spacingLeft=4;spacingRight=4;overflow=hidden;rotatable=0;points=[[0,0.5],[1,0.5]];portConstraint=eastwest;" vertex="1" parent="UWJiNNdN70AS-o2rG8F8-38">
          <mxGeometry y="234" width="210" height="26" as="geometry" />
        </mxCell>
        <mxCell id="18G3RsU9iTLbcf2INUXE-4" value="- chat: Chat" style="text;strokeColor=none;fillColor=none;align=left;verticalAlign=top;spacingLeft=4;spacingRight=4;overflow=hidden;rotatable=0;points=[[0,0.5],[1,0.5]];portConstraint=eastwest;" vertex="1" parent="UWJiNNdN70AS-o2rG8F8-38">
          <mxGeometry y="260" width="210" height="26" as="geometry" />
        </mxCell>
        <mxCell id="UWJiNNdN70AS-o2rG8F8-40" value="" style="line;strokeWidth=1;fillColor=none;align=left;verticalAlign=middle;spacingTop=-1;spacingLeft=3;spacingRight=3;rotatable=0;labelPosition=right;points=[];portConstraint=eastwest;strokeColor=inherit;" vertex="1" parent="UWJiNNdN70AS-o2rG8F8-38">
          <mxGeometry y="286" width="210" height="8" as="geometry" />
        </mxCell>
        <mxCell id="lMX_KvVGxbXyDX82zufX-11" value="+ nextTurn() : void" style="text;strokeColor=none;fillColor=none;align=left;verticalAlign=top;spacingLeft=4;spacingRight=4;overflow=hidden;rotatable=0;points=[[0,0.5],[1,0.5]];portConstraint=eastwest;" vertex="1" parent="UWJiNNdN70AS-o2rG8F8-38">
          <mxGeometry y="294" width="210" height="26" as="geometry" />
        </mxCell>
        <mxCell id="cfzzELMnldwmsjJMNl_W-2" value="-  initCommonGoal() : void" style="text;strokeColor=none;fillColor=none;align=left;verticalAlign=top;spacingLeft=4;spacingRight=4;overflow=hidden;rotatable=0;points=[[0,0.5],[1,0.5]];portConstraint=eastwest;" vertex="1" parent="UWJiNNdN70AS-o2rG8F8-38">
          <mxGeometry y="320" width="210" height="26" as="geometry" />
        </mxCell>
        <mxCell id="cfzzELMnldwmsjJMNl_W-3" value="-  initPersonalGoal() : void" style="text;strokeColor=none;fillColor=none;align=left;verticalAlign=top;spacingLeft=4;spacingRight=4;overflow=hidden;rotatable=0;points=[[0,0.5],[1,0.5]];portConstraint=eastwest;" vertex="1" parent="UWJiNNdN70AS-o2rG8F8-38">
          <mxGeometry y="346" width="210" height="26" as="geometry" />
        </mxCell>
        <mxCell id="UWJiNNdN70AS-o2rG8F8-50" value="&lt;&lt;abstract&gt;&gt;&#xa;CommonGoal" style="swimlane;fontStyle=2;align=center;verticalAlign=top;childLayout=stackLayout;horizontal=1;startSize=40;horizontalStack=0;resizeParent=1;resizeParentMax=0;resizeLast=0;collapsible=1;marginBottom=0;" vertex="1" parent="WIyWlLk6GJQsqaUBKTNV-1">
          <mxGeometry x="775.96" y="40" width="160" height="184" as="geometry">
            <mxRectangle x="240" y="20" width="110" height="40" as="alternateBounds" />
          </mxGeometry>
        </mxCell>
        <mxCell id="jC2q1fyadotwW-WfxFOZ-4" value="- pointsLeft: int" style="text;strokeColor=none;fillColor=none;align=left;verticalAlign=top;spacingLeft=4;spacingRight=4;overflow=hidden;rotatable=0;points=[[0,0.5],[1,0.5]];portConstraint=eastwest;" vertex="1" parent="UWJiNNdN70AS-o2rG8F8-50">
          <mxGeometry y="40" width="160" height="26" as="geometry" />
        </mxCell>
        <mxCell id="cfzzELMnldwmsjJMNl_W-1" value="- numPlayers: int" style="text;strokeColor=none;fillColor=none;align=left;verticalAlign=top;spacingLeft=4;spacingRight=4;overflow=hidden;rotatable=0;points=[[0,0.5],[1,0.5]];portConstraint=eastwest;" vertex="1" parent="UWJiNNdN70AS-o2rG8F8-50">
          <mxGeometry y="66" width="160" height="26" as="geometry" />
        </mxCell>
        <mxCell id="UWJiNNdN70AS-o2rG8F8-52" value="" style="line;strokeWidth=1;fillColor=none;align=left;verticalAlign=middle;spacingTop=-1;spacingLeft=3;spacingRight=3;rotatable=0;labelPosition=right;points=[];portConstraint=eastwest;strokeColor=inherit;" vertex="1" parent="UWJiNNdN70AS-o2rG8F8-50">
          <mxGeometry y="92" width="160" height="14" as="geometry" />
        </mxCell>
        <mxCell id="UWJiNNdN70AS-o2rG8F8-53" value="+ check(Shelf): boolean" style="text;strokeColor=none;fillColor=none;align=left;verticalAlign=top;spacingLeft=4;spacingRight=4;overflow=hidden;rotatable=0;points=[[0,0.5],[1,0.5]];portConstraint=eastwest;fontStyle=2" vertex="1" parent="UWJiNNdN70AS-o2rG8F8-50">
          <mxGeometry y="106" width="160" height="26" as="geometry" />
        </mxCell>
        <mxCell id="UWoFdpPRqKxkvHjYMAbd-9" value="+ pullPoints(): int " style="text;strokeColor=none;fillColor=none;align=left;verticalAlign=top;spacingLeft=4;spacingRight=4;overflow=hidden;rotatable=0;points=[[0,0.5],[1,0.5]];portConstraint=eastwest;" vertex="1" parent="UWJiNNdN70AS-o2rG8F8-50">
          <mxGeometry y="132" width="160" height="26" as="geometry" />
        </mxCell>
        <mxCell id="UWJiNNdN70AS-o2rG8F8-65" value="+ getPointsLeft(): int " style="text;strokeColor=none;fillColor=none;align=left;verticalAlign=top;spacingLeft=4;spacingRight=4;overflow=hidden;rotatable=0;points=[[0,0.5],[1,0.5]];portConstraint=eastwest;" vertex="1" parent="UWJiNNdN70AS-o2rG8F8-50">
          <mxGeometry y="158" width="160" height="26" as="geometry" />
        </mxCell>
        <mxCell id="UWJiNNdN70AS-o2rG8F8-67" value="Board" style="swimlane;fontStyle=1;align=center;verticalAlign=top;childLayout=stackLayout;horizontal=1;startSize=26;horizontalStack=0;resizeParent=1;resizeParentMax=0;resizeLast=0;collapsible=1;marginBottom=0;" vertex="1" parent="WIyWlLk6GJQsqaUBKTNV-1">
          <mxGeometry x="320" y="40" width="200" height="190" as="geometry" />
        </mxCell>
        <mxCell id="UWJiNNdN70AS-o2rG8F8-68" value="- tiles[9][9]: Tile" style="text;strokeColor=none;fillColor=none;align=left;verticalAlign=top;spacingLeft=4;spacingRight=4;overflow=hidden;rotatable=0;points=[[0,0.5],[1,0.5]];portConstraint=eastwest;" vertex="1" parent="UWJiNNdN70AS-o2rG8F8-67">
          <mxGeometry y="26" width="200" height="26" as="geometry" />
        </mxCell>
        <mxCell id="UWJiNNdN70AS-o2rG8F8-71" value="- tilesRemaining: Map&lt;Tile,Integer&gt;" style="text;strokeColor=none;fillColor=none;align=left;verticalAlign=top;spacingLeft=4;spacingRight=4;overflow=hidden;rotatable=0;points=[[0,0.5],[1,0.5]];portConstraint=eastwest;" vertex="1" parent="UWJiNNdN70AS-o2rG8F8-67">
          <mxGeometry y="52" width="200" height="26" as="geometry" />
        </mxCell>
        <mxCell id="cfzzELMnldwmsjJMNl_W-0" value="- numPlayers: int" style="text;strokeColor=none;fillColor=none;align=left;verticalAlign=top;spacingLeft=4;spacingRight=4;overflow=hidden;rotatable=0;points=[[0,0.5],[1,0.5]];portConstraint=eastwest;" vertex="1" parent="UWJiNNdN70AS-o2rG8F8-67">
          <mxGeometry y="78" width="200" height="26" as="geometry" />
        </mxCell>
        <mxCell id="UWJiNNdN70AS-o2rG8F8-69" value="" style="line;strokeWidth=1;fillColor=none;align=left;verticalAlign=middle;spacingTop=-1;spacingLeft=3;spacingRight=3;rotatable=0;labelPosition=right;points=[];portConstraint=eastwest;strokeColor=inherit;" vertex="1" parent="UWJiNNdN70AS-o2rG8F8-67">
          <mxGeometry y="104" width="200" height="8" as="geometry" />
        </mxCell>
        <mxCell id="UWJiNNdN70AS-o2rG8F8-70" value="+ refill(): void" style="text;strokeColor=none;fillColor=none;align=left;verticalAlign=top;spacingLeft=4;spacingRight=4;overflow=hidden;rotatable=0;points=[[0,0.5],[1,0.5]];portConstraint=eastwest;" vertex="1" parent="UWJiNNdN70AS-o2rG8F8-67">
          <mxGeometry y="112" width="200" height="26" as="geometry" />
        </mxCell>
        <mxCell id="UWJiNNdN70AS-o2rG8F8-72" value="+ checkFill(): boolean" style="text;strokeColor=none;fillColor=none;align=left;verticalAlign=top;spacingLeft=4;spacingRight=4;overflow=hidden;rotatable=0;points=[[0,0.5],[1,0.5]];portConstraint=eastwest;" vertex="1" parent="UWJiNNdN70AS-o2rG8F8-67">
          <mxGeometry y="138" width="200" height="26" as="geometry" />
        </mxCell>
        <mxCell id="UWJiNNdN70AS-o2rG8F8-74" value="+ pickTile(int, int): Tile" style="text;strokeColor=none;fillColor=none;align=left;verticalAlign=top;spacingLeft=4;spacingRight=4;overflow=hidden;rotatable=0;points=[[0,0.5],[1,0.5]];portConstraint=eastwest;" vertex="1" parent="UWJiNNdN70AS-o2rG8F8-67">
          <mxGeometry y="164" width="200" height="26" as="geometry" />
        </mxCell>
        <mxCell id="UWJiNNdN70AS-o2rG8F8-76" value="Shelf" style="swimlane;fontStyle=1;align=center;verticalAlign=top;childLayout=stackLayout;horizontal=1;startSize=26;horizontalStack=0;resizeParent=1;resizeParentMax=0;resizeLast=0;collapsible=1;marginBottom=0;" vertex="1" parent="WIyWlLk6GJQsqaUBKTNV-1">
          <mxGeometry x="330" y="566" width="160" height="242" as="geometry" />
        </mxCell>
        <mxCell id="UWJiNNdN70AS-o2rG8F8-77" value="- tiles[6][5]: Tile" style="text;strokeColor=none;fillColor=none;align=left;verticalAlign=top;spacingLeft=4;spacingRight=4;overflow=hidden;rotatable=0;points=[[0,0.5],[1,0.5]];portConstraint=eastwest;" vertex="1" parent="UWJiNNdN70AS-o2rG8F8-76">
          <mxGeometry y="26" width="160" height="26" as="geometry" />
        </mxCell>
        <mxCell id="UWJiNNdN70AS-o2rG8F8-78" value="- spacesForCol[5]: int" style="text;strokeColor=none;fillColor=none;align=left;verticalAlign=top;spacingLeft=4;spacingRight=4;overflow=hidden;rotatable=0;points=[[0,0.5],[1,0.5]];portConstraint=eastwest;" vertex="1" parent="UWJiNNdN70AS-o2rG8F8-76">
          <mxGeometry y="52" width="160" height="26" as="geometry" />
        </mxCell>
        <mxCell id="UWJiNNdN70AS-o2rG8F8-84" value="- spacesLeft: int" style="text;strokeColor=none;fillColor=none;align=left;verticalAlign=top;spacingLeft=4;spacingRight=4;overflow=hidden;rotatable=0;points=[[0,0.5],[1,0.5]];portConstraint=eastwest;" vertex="1" parent="UWJiNNdN70AS-o2rG8F8-76">
          <mxGeometry y="78" width="160" height="26" as="geometry" />
        </mxCell>
        <mxCell id="UWJiNNdN70AS-o2rG8F8-79" value="" style="line;strokeWidth=1;fillColor=none;align=left;verticalAlign=middle;spacingTop=-1;spacingLeft=3;spacingRight=3;rotatable=0;labelPosition=right;points=[];portConstraint=eastwest;strokeColor=inherit;" vertex="1" parent="UWJiNNdN70AS-o2rG8F8-76">
          <mxGeometry y="104" width="160" height="8" as="geometry" />
        </mxCell>
        <mxCell id="UWJiNNdN70AS-o2rG8F8-80" value="+ putTile(Tile, int): void" style="text;strokeColor=none;fillColor=none;align=left;verticalAlign=top;spacingLeft=4;spacingRight=4;overflow=hidden;rotatable=0;points=[[0,0.5],[1,0.5]];portConstraint=eastwest;" vertex="1" parent="UWJiNNdN70AS-o2rG8F8-76">
          <mxGeometry y="112" width="160" height="26" as="geometry" />
        </mxCell>
        <mxCell id="UWJiNNdN70AS-o2rG8F8-81" value="+ isFull(): boolean" style="text;strokeColor=none;fillColor=none;align=left;verticalAlign=top;spacingLeft=4;spacingRight=4;overflow=hidden;rotatable=0;points=[[0,0.5],[1,0.5]];portConstraint=eastwest;" vertex="1" parent="UWJiNNdN70AS-o2rG8F8-76">
          <mxGeometry y="138" width="160" height="26" as="geometry" />
        </mxCell>
        <mxCell id="UWJiNNdN70AS-o2rG8F8-87" value="+ spaceInCol(int): int" style="text;strokeColor=none;fillColor=none;align=left;verticalAlign=top;spacingLeft=4;spacingRight=4;overflow=hidden;rotatable=0;points=[[0,0.5],[1,0.5]];portConstraint=eastwest;" vertex="1" parent="UWJiNNdN70AS-o2rG8F8-76">
          <mxGeometry y="164" width="160" height="26" as="geometry" />
        </mxCell>
        <mxCell id="UWJiNNdN70AS-o2rG8F8-82" value="+ getGroupsPoints(): int" style="text;strokeColor=none;fillColor=none;align=left;verticalAlign=top;spacingLeft=4;spacingRight=4;overflow=hidden;rotatable=0;points=[[0,0.5],[1,0.5]];portConstraint=eastwest;" vertex="1" parent="UWJiNNdN70AS-o2rG8F8-76">
          <mxGeometry y="190" width="160" height="26" as="geometry" />
        </mxCell>
        <mxCell id="cfzzELMnldwmsjJMNl_W-4" value="- recursiveCheck(): int" style="text;strokeColor=none;fillColor=none;align=left;verticalAlign=top;spacingLeft=4;spacingRight=4;overflow=hidden;rotatable=0;points=[[0,0.5],[1,0.5]];portConstraint=eastwest;" vertex="1" parent="UWJiNNdN70AS-o2rG8F8-76">
          <mxGeometry y="216" width="160" height="26" as="geometry" />
        </mxCell>
        <mxCell id="UWJiNNdN70AS-o2rG8F8-106" value="Player" style="swimlane;fontStyle=1;align=center;verticalAlign=top;childLayout=stackLayout;horizontal=1;startSize=26;horizontalStack=0;resizeParent=1;resizeParentMax=0;resizeLast=0;collapsible=1;marginBottom=0;" vertex="1" parent="WIyWlLk6GJQsqaUBKTNV-1">
          <mxGeometry x="-30" y="592.79" width="260" height="528" as="geometry" />
        </mxCell>
        <mxCell id="n52JwKGJ7v8ZPUmFyjg8-0" value="- turnId: int" style="text;strokeColor=none;fillColor=none;align=left;verticalAlign=top;spacingLeft=4;spacingRight=4;overflow=hidden;rotatable=0;points=[[0,0.5],[1,0.5]];portConstraint=eastwest;" vertex="1" parent="UWJiNNdN70AS-o2rG8F8-106">
          <mxGeometry y="26" width="260" height="26" as="geometry" />
        </mxCell>
        <mxCell id="18G3RsU9iTLbcf2INUXE-14" value="- nickname: String&#xa;" style="text;strokeColor=none;fillColor=none;align=left;verticalAlign=top;spacingLeft=4;spacingRight=4;overflow=hidden;rotatable=0;points=[[0,0.5],[1,0.5]];portConstraint=eastwest;" vertex="1" parent="UWJiNNdN70AS-o2rG8F8-106">
          <mxGeometry y="52" width="260" height="26" as="geometry" />
        </mxCell>
        <mxCell id="n52JwKGJ7v8ZPUmFyjg8-1" value="- connected: boolean" style="text;strokeColor=none;fillColor=none;align=left;verticalAlign=top;spacingLeft=4;spacingRight=4;overflow=hidden;rotatable=0;points=[[0,0.5],[1,0.5]];portConstraint=eastwest;" vertex="1" parent="UWJiNNdN70AS-o2rG8F8-106">
          <mxGeometry y="78" width="260" height="26" as="geometry" />
        </mxCell>
        <mxCell id="n52JwKGJ7v8ZPUmFyjg8-2" value="- pointsCommonGoal[2]: int" style="text;strokeColor=none;fillColor=none;align=left;verticalAlign=top;spacingLeft=4;spacingRight=4;overflow=hidden;rotatable=0;points=[[0,0.5],[1,0.5]];portConstraint=eastwest;" vertex="1" parent="UWJiNNdN70AS-o2rG8F8-106">
          <mxGeometry y="104" width="260" height="26" as="geometry" />
        </mxCell>
        <mxCell id="n52JwKGJ7v8ZPUmFyjg8-3" value="- pickedTiles[3]: Tile" style="text;strokeColor=none;fillColor=none;align=left;verticalAlign=top;spacingLeft=4;spacingRight=4;overflow=hidden;rotatable=0;points=[[0,0.5],[1,0.5]];portConstraint=eastwest;" vertex="1" parent="UWJiNNdN70AS-o2rG8F8-106">
          <mxGeometry y="130" width="260" height="26" as="geometry" />
        </mxCell>
        <mxCell id="n52JwKGJ7v8ZPUmFyjg8-4" value="- selectedColumn: int" style="text;strokeColor=none;fillColor=none;align=left;verticalAlign=top;spacingLeft=4;spacingRight=4;overflow=hidden;rotatable=0;points=[[0,0.5],[1,0.5]];portConstraint=eastwest;" vertex="1" parent="UWJiNNdN70AS-o2rG8F8-106">
          <mxGeometry y="156" width="260" height="26" as="geometry" />
        </mxCell>
        <mxCell id="n52JwKGJ7v8ZPUmFyjg8-5" value="- shelf: Shelf" style="text;strokeColor=none;fillColor=none;align=left;verticalAlign=top;spacingLeft=4;spacingRight=4;overflow=hidden;rotatable=0;points=[[0,0.5],[1,0.5]];portConstraint=eastwest;" vertex="1" parent="UWJiNNdN70AS-o2rG8F8-106">
          <mxGeometry y="182" width="260" height="26" as="geometry" />
        </mxCell>
        <mxCell id="n52JwKGJ7v8ZPUmFyjg8-6" value="- model: Model" style="text;strokeColor=none;fillColor=none;align=left;verticalAlign=top;spacingLeft=4;spacingRight=4;overflow=hidden;rotatable=0;points=[[0,0.5],[1,0.5]];portConstraint=eastwest;" vertex="1" parent="UWJiNNdN70AS-o2rG8F8-106">
          <mxGeometry y="208" width="260" height="26" as="geometry" />
        </mxCell>
        <mxCell id="cfzzELMnldwmsjJMNl_W-12" value="- personalGoal: PersonalGoal&#xa;" style="text;strokeColor=none;fillColor=none;align=left;verticalAlign=top;spacingLeft=4;spacingRight=4;overflow=hidden;rotatable=0;points=[[0,0.5],[1,0.5]];portConstraint=eastwest;" vertex="1" parent="UWJiNNdN70AS-o2rG8F8-106">
          <mxGeometry y="234" width="260" height="26" as="geometry" />
        </mxCell>
        <mxCell id="cfzzELMnldwmsjJMNl_W-13" value="- numPickableTiles: int&#xa;" style="text;strokeColor=none;fillColor=none;align=left;verticalAlign=top;spacingLeft=4;spacingRight=4;overflow=hidden;rotatable=0;points=[[0,0.5],[1,0.5]];portConstraint=eastwest;" vertex="1" parent="UWJiNNdN70AS-o2rG8F8-106">
          <mxGeometry y="260" width="260" height="26" as="geometry" />
        </mxCell>
        <mxCell id="cfzzELMnldwmsjJMNl_W-15" value="- pickableTiles[9][9]: boolean&#xa;" style="text;strokeColor=none;fillColor=none;align=left;verticalAlign=top;spacingLeft=4;spacingRight=4;overflow=hidden;rotatable=0;points=[[0,0.5],[1,0.5]];portConstraint=eastwest;" vertex="1" parent="UWJiNNdN70AS-o2rG8F8-106">
          <mxGeometry y="286" width="260" height="26" as="geometry" />
        </mxCell>
        <mxCell id="cfzzELMnldwmsjJMNl_W-17" value="- x1: int&#xa;" style="text;strokeColor=none;fillColor=none;align=left;verticalAlign=top;spacingLeft=4;spacingRight=4;overflow=hidden;rotatable=0;points=[[0,0.5],[1,0.5]];portConstraint=eastwest;" vertex="1" parent="UWJiNNdN70AS-o2rG8F8-106">
          <mxGeometry y="312" width="260" height="26" as="geometry" />
        </mxCell>
        <mxCell id="cfzzELMnldwmsjJMNl_W-16" value="- y1: int&#xa;" style="text;strokeColor=none;fillColor=none;align=left;verticalAlign=top;spacingLeft=4;spacingRight=4;overflow=hidden;rotatable=0;points=[[0,0.5],[1,0.5]];portConstraint=eastwest;" vertex="1" parent="UWJiNNdN70AS-o2rG8F8-106">
          <mxGeometry y="338" width="260" height="26" as="geometry" />
        </mxCell>
        <mxCell id="cfzzELMnldwmsjJMNl_W-18" value="- x2: int&#xa;" style="text;strokeColor=none;fillColor=none;align=left;verticalAlign=top;spacingLeft=4;spacingRight=4;overflow=hidden;rotatable=0;points=[[0,0.5],[1,0.5]];portConstraint=eastwest;" vertex="1" parent="UWJiNNdN70AS-o2rG8F8-106">
          <mxGeometry y="364" width="260" height="26" as="geometry" />
        </mxCell>
        <mxCell id="UWJiNNdN70AS-o2rG8F8-108" value="- y2: int&#xa;" style="text;strokeColor=none;fillColor=none;align=left;verticalAlign=top;spacingLeft=4;spacingRight=4;overflow=hidden;rotatable=0;points=[[0,0.5],[1,0.5]];portConstraint=eastwest;" vertex="1" parent="UWJiNNdN70AS-o2rG8F8-106">
          <mxGeometry y="390" width="260" height="26" as="geometry" />
        </mxCell>
        <mxCell id="UWJiNNdN70AS-o2rG8F8-110" value="" style="line;strokeWidth=1;fillColor=none;align=left;verticalAlign=middle;spacingTop=-1;spacingLeft=3;spacingRight=3;rotatable=0;labelPosition=right;points=[];portConstraint=eastwest;strokeColor=inherit;" vertex="1" parent="UWJiNNdN70AS-o2rG8F8-106">
          <mxGeometry y="416" width="260" height="8" as="geometry" />
        </mxCell>
        <mxCell id="cfzzELMnldwmsjJMNl_W-41" value="+ beginTurn(): void" style="text;strokeColor=none;fillColor=none;align=left;verticalAlign=top;spacingLeft=4;spacingRight=4;overflow=hidden;rotatable=0;points=[[0,0.5],[1,0.5]];portConstraint=eastwest;" vertex="1" parent="UWJiNNdN70AS-o2rG8F8-106">
          <mxGeometry y="424" width="260" height="26" as="geometry" />
        </mxCell>
        <mxCell id="cfzzELMnldwmsjJMNl_W-40" value="+ selectTile(int, int): void" style="text;strokeColor=none;fillColor=none;align=left;verticalAlign=top;spacingLeft=4;spacingRight=4;overflow=hidden;rotatable=0;points=[[0,0.5],[1,0.5]];portConstraint=eastwest;" vertex="1" parent="UWJiNNdN70AS-o2rG8F8-106">
          <mxGeometry y="450" width="260" height="26" as="geometry" />
        </mxCell>
        <mxCell id="n52JwKGJ7v8ZPUmFyjg8-8" value="+ putInColumn(int): void&#xa;" style="text;strokeColor=none;fillColor=none;align=left;verticalAlign=top;spacingLeft=4;spacingRight=4;overflow=hidden;rotatable=0;points=[[0,0.5],[1,0.5]];portConstraint=eastwest;" vertex="1" parent="UWJiNNdN70AS-o2rG8F8-106">
          <mxGeometry y="476" width="260" height="26" as="geometry" />
        </mxCell>
        <mxCell id="cfzzELMnldwmsjJMNl_W-42" value="+ writeMessage(List&lt;Player&gt;, String): void" style="text;strokeColor=none;fillColor=none;align=left;verticalAlign=top;spacingLeft=4;spacingRight=4;overflow=hidden;rotatable=0;points=[[0,0.5],[1,0.5]];portConstraint=eastwest;" vertex="1" parent="UWJiNNdN70AS-o2rG8F8-106">
          <mxGeometry y="502" width="260" height="26" as="geometry" />
        </mxCell>
        <mxCell id="lMX_KvVGxbXyDX82zufX-1" style="edgeStyle=orthogonalEdgeStyle;rounded=0;orthogonalLoop=1;jettySize=auto;html=1;" edge="1" parent="WIyWlLk6GJQsqaUBKTNV-1">
          <mxGeometry relative="1" as="geometry">
            <mxPoint x="350" y="370" as="targetPoint" />
          </mxGeometry>
        </mxCell>
        <mxCell id="UWoFdpPRqKxkvHjYMAbd-2" value="" style="endArrow=classic;html=1;rounded=0;" edge="1" parent="WIyWlLk6GJQsqaUBKTNV-1">
          <mxGeometry width="50" height="50" relative="1" as="geometry">
            <mxPoint x="330" y="610" as="sourcePoint" />
            <mxPoint x="233" y="610" as="targetPoint" />
          </mxGeometry>
        </mxCell>
        <mxCell id="2C6BPWu4GYxqdApXP_pu-6" value="1" style="edgeLabel;html=1;align=center;verticalAlign=middle;resizable=0;points=[];" connectable="0" vertex="1" parent="UWoFdpPRqKxkvHjYMAbd-2">
          <mxGeometry x="0.5318" relative="1" as="geometry">
            <mxPoint x="-10" y="-17" as="offset" />
          </mxGeometry>
        </mxCell>
        <mxCell id="87p7kC-ZwNPXHFNO4gki-22" value="CommonGoal12" style="swimlane;fontStyle=1;align=center;verticalAlign=top;childLayout=stackLayout;horizontal=1;startSize=26;horizontalStack=0;resizeParent=1;resizeParentMax=0;resizeLast=0;collapsible=1;marginBottom=0;" vertex="1" parent="WIyWlLk6GJQsqaUBKTNV-1">
          <mxGeometry x="870" y="290" width="160" height="60" as="geometry" />
        </mxCell>
        <mxCell id="87p7kC-ZwNPXHFNO4gki-23" value="" style="line;strokeWidth=1;fillColor=none;align=left;verticalAlign=middle;spacingTop=-1;spacingLeft=3;spacingRight=3;rotatable=0;labelPosition=right;points=[];portConstraint=eastwest;strokeColor=inherit;" vertex="1" parent="87p7kC-ZwNPXHFNO4gki-22">
          <mxGeometry y="26" width="160" height="8" as="geometry" />
        </mxCell>
        <mxCell id="UWoFdpPRqKxkvHjYMAbd-12" value="+ check(Shelf): boolean" style="text;strokeColor=none;fillColor=none;align=left;verticalAlign=top;spacingLeft=4;spacingRight=4;overflow=hidden;rotatable=0;points=[[0,0.5],[1,0.5]];portConstraint=eastwest;" vertex="1" parent="87p7kC-ZwNPXHFNO4gki-22">
          <mxGeometry y="34" width="160" height="26" as="geometry" />
        </mxCell>
        <mxCell id="UWoFdpPRqKxkvHjYMAbd-3" value="" style="endArrow=classic;startArrow=classic;html=1;rounded=0;" edge="1" parent="WIyWlLk6GJQsqaUBKTNV-1">
          <mxGeometry width="50" height="50" relative="1" as="geometry">
            <mxPoint x="119" y="590" as="sourcePoint" />
            <mxPoint x="119" y="410" as="targetPoint" />
            <Array as="points" />
          </mxGeometry>
        </mxCell>
        <mxCell id="2C6BPWu4GYxqdApXP_pu-4" value="2..4" style="edgeLabel;html=1;align=center;verticalAlign=middle;resizable=0;points=[];" connectable="0" vertex="1" parent="UWoFdpPRqKxkvHjYMAbd-3">
          <mxGeometry x="0.298" y="1" relative="1" as="geometry">
            <mxPoint x="21" y="-35" as="offset" />
          </mxGeometry>
        </mxCell>
        <mxCell id="2C6BPWu4GYxqdApXP_pu-5" value="1" style="edgeLabel;html=1;align=center;verticalAlign=middle;resizable=0;points=[];" connectable="0" vertex="1" parent="UWoFdpPRqKxkvHjYMAbd-3">
          <mxGeometry x="-0.0303" relative="1" as="geometry">
            <mxPoint x="10" y="51" as="offset" />
          </mxGeometry>
        </mxCell>
        <mxCell id="87p7kC-ZwNPXHFNO4gki-26" value="" style="endArrow=block;endFill=0;endSize=12;html=1;rounded=0;entryX=0.561;entryY=1.015;entryDx=0;entryDy=0;entryPerimeter=0;exitX=0.5;exitY=0;exitDx=0;exitDy=0;" edge="1" parent="WIyWlLk6GJQsqaUBKTNV-1" source="87p7kC-ZwNPXHFNO4gki-22" target="UWJiNNdN70AS-o2rG8F8-65">
          <mxGeometry width="160" relative="1" as="geometry">
            <mxPoint x="1235.96" y="67" as="sourcePoint" />
            <mxPoint x="881.24" y="184.39199999999983" as="targetPoint" />
            <Array as="points" />
          </mxGeometry>
        </mxCell>
        <mxCell id="87p7kC-ZwNPXHFNO4gki-27" value="" style="endArrow=block;endFill=0;endSize=12;html=1;rounded=0;entryX=0.365;entryY=1.086;entryDx=0;entryDy=0;entryPerimeter=0;" edge="1" parent="WIyWlLk6GJQsqaUBKTNV-1" target="UWJiNNdN70AS-o2rG8F8-65">
          <mxGeometry width="160" relative="1" as="geometry">
            <mxPoint x="760" y="287" as="sourcePoint" />
            <mxPoint x="825.96" y="217" as="targetPoint" />
          </mxGeometry>
        </mxCell>
        <mxCell id="UWoFdpPRqKxkvHjYMAbd-7" value="" style="endArrow=classic;html=1;rounded=0;exitX=-0.005;exitY=-0.003;exitDx=0;exitDy=0;exitPerimeter=0;entryX=1;entryY=-0.003;entryDx=0;entryDy=0;entryPerimeter=0;" edge="1" parent="WIyWlLk6GJQsqaUBKTNV-1" source="UWJiNNdN70AS-o2rG8F8-68" target="18G3RsU9iTLbcf2INUXE-13">
          <mxGeometry width="50" height="50" relative="1" as="geometry">
            <mxPoint x="320" y="30" as="sourcePoint" />
            <mxPoint x="240" y="40" as="targetPoint" />
          </mxGeometry>
        </mxCell>
        <mxCell id="2C6BPWu4GYxqdApXP_pu-0" value="1" style="edgeLabel;html=1;align=center;verticalAlign=middle;resizable=0;points=[];" connectable="0" vertex="1" parent="UWoFdpPRqKxkvHjYMAbd-7">
          <mxGeometry x="-0.2001" y="-4" relative="1" as="geometry">
            <mxPoint x="-33" y="-6" as="offset" />
          </mxGeometry>
        </mxCell>
        <mxCell id="87p7kC-ZwNPXHFNO4gki-38" value="CommonGoal1" style="swimlane;fontStyle=1;align=center;verticalAlign=top;childLayout=stackLayout;horizontal=1;startSize=26;horizontalStack=0;resizeParent=1;resizeParentMax=0;resizeLast=0;collapsible=1;marginBottom=0;" vertex="1" parent="WIyWlLk6GJQsqaUBKTNV-1">
          <mxGeometry x="680" y="290" width="160" height="60" as="geometry" />
        </mxCell>
        <mxCell id="87p7kC-ZwNPXHFNO4gki-39" value="" style="line;strokeWidth=1;fillColor=none;align=left;verticalAlign=middle;spacingTop=-1;spacingLeft=3;spacingRight=3;rotatable=0;labelPosition=right;points=[];portConstraint=eastwest;strokeColor=inherit;" vertex="1" parent="87p7kC-ZwNPXHFNO4gki-38">
          <mxGeometry y="26" width="160" height="8" as="geometry" />
        </mxCell>
        <mxCell id="UWoFdpPRqKxkvHjYMAbd-10" value="+ check(Shelf): boolean" style="text;strokeColor=none;fillColor=none;align=left;verticalAlign=top;spacingLeft=4;spacingRight=4;overflow=hidden;rotatable=0;points=[[0,0.5],[1,0.5]];portConstraint=eastwest;" vertex="1" parent="87p7kC-ZwNPXHFNO4gki-38">
          <mxGeometry y="34" width="160" height="26" as="geometry" />
        </mxCell>
        <mxCell id="87p7kC-ZwNPXHFNO4gki-43" value="PersonalGoal1" style="swimlane;fontStyle=1;align=center;verticalAlign=top;childLayout=stackLayout;horizontal=1;startSize=26;horizontalStack=0;resizeParent=1;resizeParentMax=0;resizeLast=0;collapsible=1;marginBottom=0;" vertex="1" parent="WIyWlLk6GJQsqaUBKTNV-1">
          <mxGeometry x="665.96" y="630" width="160" height="60" as="geometry" />
        </mxCell>
        <mxCell id="87p7kC-ZwNPXHFNO4gki-44" value="" style="line;strokeWidth=1;fillColor=none;align=left;verticalAlign=middle;spacingTop=-1;spacingLeft=3;spacingRight=3;rotatable=0;labelPosition=right;points=[];portConstraint=eastwest;strokeColor=inherit;" vertex="1" parent="87p7kC-ZwNPXHFNO4gki-43">
          <mxGeometry y="26" width="160" height="8" as="geometry" />
        </mxCell>
        <mxCell id="87p7kC-ZwNPXHFNO4gki-45" value="+ getPoints(Shelf): int" style="text;strokeColor=none;fillColor=none;align=left;verticalAlign=top;spacingLeft=4;spacingRight=4;overflow=hidden;rotatable=0;points=[[0,0.5],[1,0.5]];portConstraint=eastwest;" vertex="1" parent="87p7kC-ZwNPXHFNO4gki-43">
          <mxGeometry y="34" width="160" height="26" as="geometry" />
        </mxCell>
        <mxCell id="87p7kC-ZwNPXHFNO4gki-46" value="&lt;&lt;interface&gt;&gt;&#xa;PersonalGoal" style="swimlane;fontStyle=2;align=center;verticalAlign=top;childLayout=stackLayout;horizontal=1;startSize=40;horizontalStack=0;resizeParent=1;resizeParentMax=0;resizeLast=0;collapsible=1;marginBottom=0;" vertex="1" parent="WIyWlLk6GJQsqaUBKTNV-1">
          <mxGeometry x="760" y="480" width="160" height="86" as="geometry">
            <mxRectangle x="240" y="20" width="110" height="40" as="alternateBounds" />
          </mxGeometry>
        </mxCell>
        <mxCell id="87p7kC-ZwNPXHFNO4gki-47" value="" style="line;strokeWidth=1;fillColor=none;align=left;verticalAlign=middle;spacingTop=-1;spacingLeft=3;spacingRight=3;rotatable=0;labelPosition=right;points=[];portConstraint=eastwest;strokeColor=inherit;" vertex="1" parent="87p7kC-ZwNPXHFNO4gki-46">
          <mxGeometry y="40" width="160" height="20" as="geometry" />
        </mxCell>
        <mxCell id="87p7kC-ZwNPXHFNO4gki-48" value="+ getPoints(Shelf): int " style="text;strokeColor=none;fillColor=none;align=left;verticalAlign=top;spacingLeft=4;spacingRight=4;overflow=hidden;rotatable=0;points=[[0,0.5],[1,0.5]];portConstraint=eastwest;" vertex="1" parent="87p7kC-ZwNPXHFNO4gki-46">
          <mxGeometry y="60" width="160" height="26" as="geometry" />
        </mxCell>
        <mxCell id="87p7kC-ZwNPXHFNO4gki-49" value="" style="endArrow=block;dashed=1;endFill=0;endSize=12;html=1;rounded=0;entryX=0.352;entryY=1.038;entryDx=0;entryDy=0;entryPerimeter=0;exitX=0.75;exitY=0;exitDx=0;exitDy=0;" edge="1" parent="WIyWlLk6GJQsqaUBKTNV-1" source="87p7kC-ZwNPXHFNO4gki-43" target="87p7kC-ZwNPXHFNO4gki-48">
          <mxGeometry width="160" relative="1" as="geometry">
            <mxPoint x="795.96" y="650" as="sourcePoint" />
            <mxPoint x="825.96" y="600" as="targetPoint" />
          </mxGeometry>
        </mxCell>
        <mxCell id="87p7kC-ZwNPXHFNO4gki-50" value="PersonalGoal12" style="swimlane;fontStyle=1;align=center;verticalAlign=top;childLayout=stackLayout;horizontal=1;startSize=26;horizontalStack=0;resizeParent=1;resizeParentMax=0;resizeLast=0;collapsible=1;marginBottom=0;" vertex="1" parent="WIyWlLk6GJQsqaUBKTNV-1">
          <mxGeometry x="845.96" y="630" width="160" height="60" as="geometry" />
        </mxCell>
        <mxCell id="87p7kC-ZwNPXHFNO4gki-51" value="" style="line;strokeWidth=1;fillColor=none;align=left;verticalAlign=middle;spacingTop=-1;spacingLeft=3;spacingRight=3;rotatable=0;labelPosition=right;points=[];portConstraint=eastwest;strokeColor=inherit;" vertex="1" parent="87p7kC-ZwNPXHFNO4gki-50">
          <mxGeometry y="26" width="160" height="8" as="geometry" />
        </mxCell>
        <mxCell id="87p7kC-ZwNPXHFNO4gki-52" value="+ getPoints(Shelf): int" style="text;strokeColor=none;fillColor=none;align=left;verticalAlign=top;spacingLeft=4;spacingRight=4;overflow=hidden;rotatable=0;points=[[0,0.5],[1,0.5]];portConstraint=eastwest;" vertex="1" parent="87p7kC-ZwNPXHFNO4gki-50">
          <mxGeometry y="34" width="160" height="26" as="geometry" />
        </mxCell>
        <mxCell id="87p7kC-ZwNPXHFNO4gki-53" value="" style="endArrow=block;dashed=1;endFill=0;endSize=12;html=1;rounded=0;entryX=0.544;entryY=1.097;entryDx=0;entryDy=0;entryPerimeter=0;exitX=0.25;exitY=0;exitDx=0;exitDy=0;" edge="1" parent="WIyWlLk6GJQsqaUBKTNV-1" source="87p7kC-ZwNPXHFNO4gki-50" target="87p7kC-ZwNPXHFNO4gki-48">
          <mxGeometry width="160" relative="1" as="geometry">
            <mxPoint x="675.96" y="630" as="sourcePoint" />
            <mxPoint x="831.96" y="581" as="targetPoint" />
            <Array as="points">
              <mxPoint x="865.96" y="600" />
            </Array>
          </mxGeometry>
        </mxCell>
        <mxCell id="87p7kC-ZwNPXHFNO4gki-54" value="1" style="endArrow=open;html=1;endSize=12;startArrow=diamondThin;startSize=14;startFill=0;edgeStyle=orthogonalEdgeStyle;align=left;verticalAlign=bottom;rounded=0;entryX=0;entryY=0.25;entryDx=0;entryDy=0;exitX=1.009;exitY=-0.011;exitDx=0;exitDy=0;exitPerimeter=0;" edge="1" parent="WIyWlLk6GJQsqaUBKTNV-1" source="UWJiNNdN70AS-o2rG8F8-108" target="87p7kC-ZwNPXHFNO4gki-46">
          <mxGeometry x="-0.9047" y="-17" relative="1" as="geometry">
            <mxPoint x="240" y="690" as="sourcePoint" />
            <mxPoint x="620" y="500" as="targetPoint" />
            <Array as="points">
              <mxPoint x="530" y="983" />
              <mxPoint x="530" y="501" />
            </Array>
            <mxPoint as="offset" />
          </mxGeometry>
        </mxCell>
        <mxCell id="87p7kC-ZwNPXHFNO4gki-56" value="2" style="endArrow=open;html=1;endSize=12;startArrow=diamondThin;startSize=14;startFill=0;edgeStyle=orthogonalEdgeStyle;align=left;verticalAlign=bottom;rounded=0;exitX=1;exitY=0.5;exitDx=0;exitDy=0;" edge="1" parent="WIyWlLk6GJQsqaUBKTNV-1" source="UWJiNNdN70AS-o2rG8F8-45" target="UWJiNNdN70AS-o2rG8F8-50">
          <mxGeometry x="-0.9721" y="5" relative="1" as="geometry">
            <mxPoint x="210" y="695" as="sourcePoint" />
            <mxPoint x="760" y="80" as="targetPoint" />
            <Array as="points">
              <mxPoint x="690" y="261" />
              <mxPoint x="690" y="64" />
            </Array>
            <mxPoint as="offset" />
          </mxGeometry>
        </mxCell>
        <mxCell id="j5X3VHeK19DhDlfcmWfR-0" value="&lt;&lt;enumeration&gt;&gt;&#xa;Tile" style="swimlane;fontStyle=2;align=center;verticalAlign=top;childLayout=stackLayout;horizontal=1;startSize=40;horizontalStack=0;resizeParent=1;resizeParentMax=0;resizeLast=0;collapsible=1;marginBottom=0;" vertex="1" parent="WIyWlLk6GJQsqaUBKTNV-1">
          <mxGeometry x="1120" y="50" width="160" height="612" as="geometry">
            <mxRectangle x="240" y="20" width="110" height="40" as="alternateBounds" />
          </mxGeometry>
        </mxCell>
        <mxCell id="j5X3VHeK19DhDlfcmWfR-10" value="GREEN1" style="text;strokeColor=none;fillColor=none;align=left;verticalAlign=top;spacingLeft=4;spacingRight=4;overflow=hidden;rotatable=0;points=[[0,0.5],[1,0.5]];portConstraint=eastwest;" vertex="1" parent="j5X3VHeK19DhDlfcmWfR-0">
          <mxGeometry y="40" width="160" height="26" as="geometry" />
        </mxCell>
        <mxCell id="j5X3VHeK19DhDlfcmWfR-11" value="GREEN2" style="text;strokeColor=none;fillColor=none;align=left;verticalAlign=top;spacingLeft=4;spacingRight=4;overflow=hidden;rotatable=0;points=[[0,0.5],[1,0.5]];portConstraint=eastwest;" vertex="1" parent="j5X3VHeK19DhDlfcmWfR-0">
          <mxGeometry y="66" width="160" height="26" as="geometry" />
        </mxCell>
        <mxCell id="j5X3VHeK19DhDlfcmWfR-12" value="GREEN3" style="text;strokeColor=none;fillColor=none;align=left;verticalAlign=top;spacingLeft=4;spacingRight=4;overflow=hidden;rotatable=0;points=[[0,0.5],[1,0.5]];portConstraint=eastwest;" vertex="1" parent="j5X3VHeK19DhDlfcmWfR-0">
          <mxGeometry y="92" width="160" height="26" as="geometry" />
        </mxCell>
        <mxCell id="j5X3VHeK19DhDlfcmWfR-13" value="BLUE1" style="text;strokeColor=none;fillColor=none;align=left;verticalAlign=top;spacingLeft=4;spacingRight=4;overflow=hidden;rotatable=0;points=[[0,0.5],[1,0.5]];portConstraint=eastwest;" vertex="1" parent="j5X3VHeK19DhDlfcmWfR-0">
          <mxGeometry y="118" width="160" height="26" as="geometry" />
        </mxCell>
        <mxCell id="j5X3VHeK19DhDlfcmWfR-14" value="BLUE2" style="text;strokeColor=none;fillColor=none;align=left;verticalAlign=top;spacingLeft=4;spacingRight=4;overflow=hidden;rotatable=0;points=[[0,0.5],[1,0.5]];portConstraint=eastwest;" vertex="1" parent="j5X3VHeK19DhDlfcmWfR-0">
          <mxGeometry y="144" width="160" height="26" as="geometry" />
        </mxCell>
        <mxCell id="j5X3VHeK19DhDlfcmWfR-15" value="BLUE3" style="text;strokeColor=none;fillColor=none;align=left;verticalAlign=top;spacingLeft=4;spacingRight=4;overflow=hidden;rotatable=0;points=[[0,0.5],[1,0.5]];portConstraint=eastwest;" vertex="1" parent="j5X3VHeK19DhDlfcmWfR-0">
          <mxGeometry y="170" width="160" height="26" as="geometry" />
        </mxCell>
        <mxCell id="j5X3VHeK19DhDlfcmWfR-16" value="PINK1" style="text;strokeColor=none;fillColor=none;align=left;verticalAlign=top;spacingLeft=4;spacingRight=4;overflow=hidden;rotatable=0;points=[[0,0.5],[1,0.5]];portConstraint=eastwest;" vertex="1" parent="j5X3VHeK19DhDlfcmWfR-0">
          <mxGeometry y="196" width="160" height="26" as="geometry" />
        </mxCell>
        <mxCell id="j5X3VHeK19DhDlfcmWfR-17" value="PINK2" style="text;strokeColor=none;fillColor=none;align=left;verticalAlign=top;spacingLeft=4;spacingRight=4;overflow=hidden;rotatable=0;points=[[0,0.5],[1,0.5]];portConstraint=eastwest;" vertex="1" parent="j5X3VHeK19DhDlfcmWfR-0">
          <mxGeometry y="222" width="160" height="26" as="geometry" />
        </mxCell>
        <mxCell id="j5X3VHeK19DhDlfcmWfR-18" value="PINK3" style="text;strokeColor=none;fillColor=none;align=left;verticalAlign=top;spacingLeft=4;spacingRight=4;overflow=hidden;rotatable=0;points=[[0,0.5],[1,0.5]];portConstraint=eastwest;" vertex="1" parent="j5X3VHeK19DhDlfcmWfR-0">
          <mxGeometry y="248" width="160" height="26" as="geometry" />
        </mxCell>
        <mxCell id="j5X3VHeK19DhDlfcmWfR-19" value="WHITE1" style="text;strokeColor=none;fillColor=none;align=left;verticalAlign=top;spacingLeft=4;spacingRight=4;overflow=hidden;rotatable=0;points=[[0,0.5],[1,0.5]];portConstraint=eastwest;" vertex="1" parent="j5X3VHeK19DhDlfcmWfR-0">
          <mxGeometry y="274" width="160" height="26" as="geometry" />
        </mxCell>
        <mxCell id="j5X3VHeK19DhDlfcmWfR-20" value="WHITE2" style="text;strokeColor=none;fillColor=none;align=left;verticalAlign=top;spacingLeft=4;spacingRight=4;overflow=hidden;rotatable=0;points=[[0,0.5],[1,0.5]];portConstraint=eastwest;" vertex="1" parent="j5X3VHeK19DhDlfcmWfR-0">
          <mxGeometry y="300" width="160" height="26" as="geometry" />
        </mxCell>
        <mxCell id="j5X3VHeK19DhDlfcmWfR-21" value="WHITE3" style="text;strokeColor=none;fillColor=none;align=left;verticalAlign=top;spacingLeft=4;spacingRight=4;overflow=hidden;rotatable=0;points=[[0,0.5],[1,0.5]];portConstraint=eastwest;" vertex="1" parent="j5X3VHeK19DhDlfcmWfR-0">
          <mxGeometry y="326" width="160" height="26" as="geometry" />
        </mxCell>
        <mxCell id="j5X3VHeK19DhDlfcmWfR-22" value="ORANGE1" style="text;strokeColor=none;fillColor=none;align=left;verticalAlign=top;spacingLeft=4;spacingRight=4;overflow=hidden;rotatable=0;points=[[0,0.5],[1,0.5]];portConstraint=eastwest;" vertex="1" parent="j5X3VHeK19DhDlfcmWfR-0">
          <mxGeometry y="352" width="160" height="26" as="geometry" />
        </mxCell>
        <mxCell id="j5X3VHeK19DhDlfcmWfR-23" value="ORANGE2" style="text;strokeColor=none;fillColor=none;align=left;verticalAlign=top;spacingLeft=4;spacingRight=4;overflow=hidden;rotatable=0;points=[[0,0.5],[1,0.5]];portConstraint=eastwest;" vertex="1" parent="j5X3VHeK19DhDlfcmWfR-0">
          <mxGeometry y="378" width="160" height="26" as="geometry" />
        </mxCell>
        <mxCell id="j5X3VHeK19DhDlfcmWfR-24" value="ORANGE3" style="text;strokeColor=none;fillColor=none;align=left;verticalAlign=top;spacingLeft=4;spacingRight=4;overflow=hidden;rotatable=0;points=[[0,0.5],[1,0.5]];portConstraint=eastwest;" vertex="1" parent="j5X3VHeK19DhDlfcmWfR-0">
          <mxGeometry y="404" width="160" height="26" as="geometry" />
        </mxCell>
        <mxCell id="2C6BPWu4GYxqdApXP_pu-7" value="CYAN1" style="text;strokeColor=none;fillColor=none;align=left;verticalAlign=top;spacingLeft=4;spacingRight=4;overflow=hidden;rotatable=0;points=[[0,0.5],[1,0.5]];portConstraint=eastwest;" vertex="1" parent="j5X3VHeK19DhDlfcmWfR-0">
          <mxGeometry y="430" width="160" height="26" as="geometry" />
        </mxCell>
        <mxCell id="2C6BPWu4GYxqdApXP_pu-8" value="CYAN2" style="text;strokeColor=none;fillColor=none;align=left;verticalAlign=top;spacingLeft=4;spacingRight=4;overflow=hidden;rotatable=0;points=[[0,0.5],[1,0.5]];portConstraint=eastwest;" vertex="1" parent="j5X3VHeK19DhDlfcmWfR-0">
          <mxGeometry y="456" width="160" height="26" as="geometry" />
        </mxCell>
        <mxCell id="2C6BPWu4GYxqdApXP_pu-10" value="CYAN3" style="text;strokeColor=none;fillColor=none;align=left;verticalAlign=top;spacingLeft=4;spacingRight=4;overflow=hidden;rotatable=0;points=[[0,0.5],[1,0.5]];portConstraint=eastwest;" vertex="1" parent="j5X3VHeK19DhDlfcmWfR-0">
          <mxGeometry y="482" width="160" height="26" as="geometry" />
        </mxCell>
        <mxCell id="2C6BPWu4GYxqdApXP_pu-11" value="EMPTY" style="text;strokeColor=none;fillColor=none;align=left;verticalAlign=top;spacingLeft=4;spacingRight=4;overflow=hidden;rotatable=0;points=[[0,0.5],[1,0.5]];portConstraint=eastwest;" vertex="1" parent="j5X3VHeK19DhDlfcmWfR-0">
          <mxGeometry y="508" width="160" height="26" as="geometry" />
        </mxCell>
        <mxCell id="j5X3VHeK19DhDlfcmWfR-29" value="BLOCKED" style="text;strokeColor=none;fillColor=none;align=left;verticalAlign=top;spacingLeft=4;spacingRight=4;overflow=hidden;rotatable=0;points=[[0,0.5],[1,0.5]];portConstraint=eastwest;" vertex="1" parent="j5X3VHeK19DhDlfcmWfR-0">
          <mxGeometry y="534" width="160" height="26" as="geometry" />
        </mxCell>
        <mxCell id="cfzzELMnldwmsjJMNl_W-43" value="+ isEmpty(): boolean" style="text;strokeColor=none;fillColor=none;align=left;verticalAlign=top;spacingLeft=4;spacingRight=4;overflow=hidden;rotatable=0;points=[[0,0.5],[1,0.5]];portConstraint=eastwest;" vertex="1" parent="j5X3VHeK19DhDlfcmWfR-0">
          <mxGeometry y="560" width="160" height="26" as="geometry" />
        </mxCell>
        <mxCell id="cfzzELMnldwmsjJMNl_W-47" value="+ equals(Tile): boolean" style="text;strokeColor=none;fillColor=none;align=left;verticalAlign=top;spacingLeft=4;spacingRight=4;overflow=hidden;rotatable=0;points=[[0,0.5],[1,0.5]];portConstraint=eastwest;" vertex="1" parent="j5X3VHeK19DhDlfcmWfR-0">
          <mxGeometry y="586" width="160" height="26" as="geometry" />
        </mxCell>
        <mxCell id="cfzzELMnldwmsjJMNl_W-48" value="" style="endArrow=none;html=1;rounded=0;exitX=0.006;exitY=-0.005;exitDx=0;exitDy=0;exitPerimeter=0;entryX=0.994;entryY=-0.019;entryDx=0;entryDy=0;entryPerimeter=0;" edge="1" parent="j5X3VHeK19DhDlfcmWfR-0" source="cfzzELMnldwmsjJMNl_W-43" target="cfzzELMnldwmsjJMNl_W-43">
          <mxGeometry width="50" height="50" relative="1" as="geometry">
            <mxPoint x="370" y="550" as="sourcePoint" />
            <mxPoint x="420" y="500" as="targetPoint" />
          </mxGeometry>
        </mxCell>
        <mxCell id="j5X3VHeK19DhDlfcmWfR-27" value="" style="endArrow=none;html=1;rounded=0;" edge="1" parent="WIyWlLk6GJQsqaUBKTNV-1">
          <mxGeometry width="50" height="50" relative="1" as="geometry">
            <mxPoint x="520" y="80" as="sourcePoint" />
            <mxPoint x="1120" y="80" as="targetPoint" />
            <Array as="points">
              <mxPoint x="660" y="80" />
              <mxPoint x="660" y="30" />
              <mxPoint x="1000" y="30" />
              <mxPoint x="1000" y="80" />
            </Array>
          </mxGeometry>
        </mxCell>
        <mxCell id="j5X3VHeK19DhDlfcmWfR-28" value="81" style="edgeLabel;html=1;align=center;verticalAlign=middle;resizable=0;points=[];" connectable="0" vertex="1" parent="WIyWlLk6GJQsqaUBKTNV-1">
          <mxGeometry x="189.99517454344195" y="411.9982717199435" as="geometry">
            <mxPoint x="342" y="-340" as="offset" />
          </mxGeometry>
        </mxCell>
        <mxCell id="2C6BPWu4GYxqdApXP_pu-12" value="" style="endArrow=none;html=1;rounded=0;exitX=1;exitY=0.5;exitDx=0;exitDy=0;entryX=-0.006;entryY=0.973;entryDx=0;entryDy=0;entryPerimeter=0;" edge="1" parent="WIyWlLk6GJQsqaUBKTNV-1" source="UWJiNNdN70AS-o2rG8F8-87" target="j5X3VHeK19DhDlfcmWfR-23">
          <mxGeometry width="50" height="50" relative="1" as="geometry">
            <mxPoint x="390" y="390" as="sourcePoint" />
            <mxPoint x="530" y="450" as="targetPoint" />
            <Array as="points">
              <mxPoint x="1030" y="743" />
              <mxPoint x="1030" y="453" />
            </Array>
          </mxGeometry>
        </mxCell>
        <mxCell id="j5X3VHeK19DhDlfcmWfR-30" value="30" style="edgeLabel;html=1;align=center;verticalAlign=middle;resizable=0;points=[];" connectable="0" vertex="1" parent="WIyWlLk6GJQsqaUBKTNV-1">
          <mxGeometry x="160.01517454344196" y="709.9982717199434" as="geometry">
            <mxPoint x="341" y="19" as="offset" />
          </mxGeometry>
        </mxCell>
        <mxCell id="2C6BPWu4GYxqdApXP_pu-15" value="" style="endArrow=none;html=1;rounded=0;entryX=0.49;entryY=1.192;entryDx=0;entryDy=0;entryPerimeter=0;" edge="1" parent="WIyWlLk6GJQsqaUBKTNV-1" target="cfzzELMnldwmsjJMNl_W-47">
          <mxGeometry width="50" height="50" relative="1" as="geometry">
            <mxPoint x="230" y="1090" as="sourcePoint" />
            <mxPoint x="1200" y="730" as="targetPoint" />
            <Array as="points">
              <mxPoint x="1200" y="1090" />
            </Array>
          </mxGeometry>
        </mxCell>
        <mxCell id="2C6BPWu4GYxqdApXP_pu-17" value="0..3" style="edgeLabel;html=1;align=center;verticalAlign=middle;resizable=0;points=[];" connectable="0" vertex="1" parent="2C6BPWu4GYxqdApXP_pu-15">
          <mxGeometry x="-0.9504" y="2" relative="1" as="geometry">
            <mxPoint x="-9" y="-6" as="offset" />
          </mxGeometry>
        </mxCell>
        <mxCell id="j5X3VHeK19DhDlfcmWfR-31" value="Chat" style="swimlane;fontStyle=1;align=center;verticalAlign=top;childLayout=stackLayout;horizontal=1;startSize=26;horizontalStack=0;resizeParent=1;resizeParentMax=0;resizeLast=0;collapsible=1;marginBottom=0;" vertex="1" parent="WIyWlLk6GJQsqaUBKTNV-1">
          <mxGeometry x="-280" y="40.00000000000003" width="250" height="138" as="geometry" />
        </mxCell>
        <mxCell id="j5X3VHeK19DhDlfcmWfR-32" value="- messages: List&lt;Message&gt; " style="text;strokeColor=none;fillColor=none;align=left;verticalAlign=top;spacingLeft=4;spacingRight=4;overflow=hidden;rotatable=0;points=[[0,0.5],[1,0.5]];portConstraint=eastwest;" vertex="1" parent="j5X3VHeK19DhDlfcmWfR-31">
          <mxGeometry y="26" width="250" height="26" as="geometry" />
        </mxCell>
        <mxCell id="ZHFFW51MYgz4wVmmC-CQ-3" value="- players: List&lt;Player&gt; " style="text;strokeColor=none;fillColor=none;align=left;verticalAlign=top;spacingLeft=4;spacingRight=4;overflow=hidden;rotatable=0;points=[[0,0.5],[1,0.5]];portConstraint=eastwest;" vertex="1" parent="j5X3VHeK19DhDlfcmWfR-31">
          <mxGeometry y="52" width="250" height="26" as="geometry" />
        </mxCell>
        <mxCell id="j5X3VHeK19DhDlfcmWfR-40" value="" style="line;strokeWidth=1;fillColor=none;align=left;verticalAlign=middle;spacingTop=-1;spacingLeft=3;spacingRight=3;rotatable=0;labelPosition=right;points=[];portConstraint=eastwest;strokeColor=inherit;" vertex="1" parent="j5X3VHeK19DhDlfcmWfR-31">
          <mxGeometry y="78" width="250" height="8" as="geometry" />
        </mxCell>
        <mxCell id="j5X3VHeK19DhDlfcmWfR-41" value="+ writeMessage(Player, Player, String) : void" style="text;strokeColor=none;fillColor=none;align=left;verticalAlign=top;spacingLeft=4;spacingRight=4;overflow=hidden;rotatable=0;points=[[0,0.5],[1,0.5]];portConstraint=eastwest;" vertex="1" parent="j5X3VHeK19DhDlfcmWfR-31">
          <mxGeometry y="86" width="250" height="26" as="geometry" />
        </mxCell>
        <mxCell id="18G3RsU9iTLbcf2INUXE-3" value="+ writeMessage(Player, String) : void" style="text;strokeColor=none;fillColor=none;align=left;verticalAlign=top;spacingLeft=4;spacingRight=4;overflow=hidden;rotatable=0;points=[[0,0.5],[1,0.5]];portConstraint=eastwest;" vertex="1" parent="j5X3VHeK19DhDlfcmWfR-31">
          <mxGeometry y="112" width="250" height="26" as="geometry" />
        </mxCell>
        <mxCell id="2C6BPWu4GYxqdApXP_pu-19" value="Message" style="swimlane;fontStyle=1;align=center;verticalAlign=top;childLayout=stackLayout;horizontal=1;startSize=26;horizontalStack=0;resizeParent=1;resizeParentMax=0;resizeLast=0;collapsible=1;marginBottom=0;" vertex="1" parent="WIyWlLk6GJQsqaUBKTNV-1">
          <mxGeometry x="-260" y="250.00000000000006" width="210" height="126" as="geometry" />
        </mxCell>
        <mxCell id="2C6BPWu4GYxqdApXP_pu-20" value="- sender: Player&#xa;" style="text;strokeColor=none;fillColor=none;align=left;verticalAlign=top;spacingLeft=4;spacingRight=4;overflow=hidden;rotatable=0;points=[[0,0.5],[1,0.5]];portConstraint=eastwest;" vertex="1" parent="2C6BPWu4GYxqdApXP_pu-19">
          <mxGeometry y="26" width="210" height="26" as="geometry" />
        </mxCell>
        <mxCell id="18G3RsU9iTLbcf2INUXE-1" value="- receiver: List&lt;Player&gt;&#xa;" style="text;strokeColor=none;fillColor=none;align=left;verticalAlign=top;spacingLeft=4;spacingRight=4;overflow=hidden;rotatable=0;points=[[0,0.5],[1,0.5]];portConstraint=eastwest;" vertex="1" parent="2C6BPWu4GYxqdApXP_pu-19">
          <mxGeometry y="52" width="210" height="26" as="geometry" />
        </mxCell>
        <mxCell id="18G3RsU9iTLbcf2INUXE-2" value="- text: String" style="text;strokeColor=none;fillColor=none;align=left;verticalAlign=top;spacingLeft=4;spacingRight=4;overflow=hidden;rotatable=0;points=[[0,0.5],[1,0.5]];portConstraint=eastwest;" vertex="1" parent="2C6BPWu4GYxqdApXP_pu-19">
          <mxGeometry y="78" width="210" height="22" as="geometry" />
        </mxCell>
        <mxCell id="2C6BPWu4GYxqdApXP_pu-22" value="" style="line;strokeWidth=1;fillColor=none;align=left;verticalAlign=middle;spacingTop=-1;spacingLeft=3;spacingRight=3;rotatable=0;labelPosition=right;points=[];portConstraint=eastwest;strokeColor=inherit;" vertex="1" parent="2C6BPWu4GYxqdApXP_pu-19">
          <mxGeometry y="100" width="210" height="26" as="geometry" />
        </mxCell>
        <mxCell id="18G3RsU9iTLbcf2INUXE-6" value="" style="endArrow=classic;html=1;rounded=0;entryX=0.5;entryY=1;entryDx=0;entryDy=0;" edge="1" parent="WIyWlLk6GJQsqaUBKTNV-1" source="2C6BPWu4GYxqdApXP_pu-19" target="j5X3VHeK19DhDlfcmWfR-31">
          <mxGeometry width="50" height="50" relative="1" as="geometry">
            <mxPoint x="-100" y="220" as="sourcePoint" />
            <mxPoint x="-50" y="170" as="targetPoint" />
          </mxGeometry>
        </mxCell>
        <mxCell id="18G3RsU9iTLbcf2INUXE-7" value="0..N" style="edgeLabel;html=1;align=center;verticalAlign=middle;resizable=0;points=[];" connectable="0" vertex="1" parent="18G3RsU9iTLbcf2INUXE-6">
          <mxGeometry x="-0.6649" relative="1" as="geometry">
            <mxPoint x="16" y="-35" as="offset" />
          </mxGeometry>
        </mxCell>
        <mxCell id="18G3RsU9iTLbcf2INUXE-8" value="" style="endArrow=classic;html=1;rounded=0;exitX=1;exitY=0.5;exitDx=0;exitDy=0;entryX=0;entryY=0.5;entryDx=0;entryDy=0;" edge="1" parent="WIyWlLk6GJQsqaUBKTNV-1" target="lMX_KvVGxbXyDX82zufX-8">
          <mxGeometry width="50" height="50" relative="1" as="geometry">
            <mxPoint x="-30" y="105" as="sourcePoint" />
            <mxPoint x="-50" y="80" as="targetPoint" />
          </mxGeometry>
        </mxCell>
        <mxCell id="18G3RsU9iTLbcf2INUXE-9" value="1" style="edgeLabel;html=1;align=center;verticalAlign=middle;resizable=0;points=[];" connectable="0" vertex="1" parent="18G3RsU9iTLbcf2INUXE-8">
          <mxGeometry x="0.6611" y="-1" relative="1" as="geometry">
            <mxPoint x="-1" y="-14" as="offset" />
          </mxGeometry>
        </mxCell>
        <mxCell id="ZHFFW51MYgz4wVmmC-CQ-6" value="" style="endArrow=classic;html=1;rounded=0;exitX=0;exitY=0.5;exitDx=0;exitDy=0;entryX=0;entryY=0.5;entryDx=0;entryDy=0;" edge="1" parent="WIyWlLk6GJQsqaUBKTNV-1" source="ZHFFW51MYgz4wVmmC-CQ-3" target="n52JwKGJ7v8ZPUmFyjg8-0">
          <mxGeometry width="50" height="50" relative="1" as="geometry">
            <mxPoint x="420" y="490" as="sourcePoint" />
            <mxPoint x="-50" y="640" as="targetPoint" />
            <Array as="points">
              <mxPoint x="-320" y="105" />
              <mxPoint x="-320" y="630" />
            </Array>
          </mxGeometry>
        </mxCell>
        <mxCell id="ZHFFW51MYgz4wVmmC-CQ-7" value="2..4" style="edgeLabel;html=1;align=center;verticalAlign=middle;resizable=0;points=[];" connectable="0" vertex="1" parent="WIyWlLk6GJQsqaUBKTNV-1">
          <mxGeometry x="124.99728821423399" y="469.61804411316257" as="geometry">
            <mxPoint x="-178" y="150" as="offset" />
          </mxGeometry>
        </mxCell>
        <mxCell id="cfzzELMnldwmsjJMNl_W-19" value="&lt;&lt;enumeration&gt;&gt;&#xa;TileColor" style="swimlane;fontStyle=2;align=center;verticalAlign=top;childLayout=stackLayout;horizontal=1;startSize=40;horizontalStack=0;resizeParent=1;resizeParentMax=0;resizeLast=0;collapsible=1;marginBottom=0;" vertex="1" parent="WIyWlLk6GJQsqaUBKTNV-1">
          <mxGeometry x="1330" y="50" width="160" height="248" as="geometry">
            <mxRectangle x="240" y="20" width="110" height="40" as="alternateBounds" />
          </mxGeometry>
        </mxCell>
        <mxCell id="cfzzELMnldwmsjJMNl_W-20" value="GREEN" style="text;strokeColor=none;fillColor=none;align=left;verticalAlign=top;spacingLeft=4;spacingRight=4;overflow=hidden;rotatable=0;points=[[0,0.5],[1,0.5]];portConstraint=eastwest;" vertex="1" parent="cfzzELMnldwmsjJMNl_W-19">
          <mxGeometry y="40" width="160" height="26" as="geometry" />
        </mxCell>
        <mxCell id="cfzzELMnldwmsjJMNl_W-23" value="BLUE" style="text;strokeColor=none;fillColor=none;align=left;verticalAlign=top;spacingLeft=4;spacingRight=4;overflow=hidden;rotatable=0;points=[[0,0.5],[1,0.5]];portConstraint=eastwest;" vertex="1" parent="cfzzELMnldwmsjJMNl_W-19">
          <mxGeometry y="66" width="160" height="26" as="geometry" />
        </mxCell>
        <mxCell id="cfzzELMnldwmsjJMNl_W-26" value="PINK" style="text;strokeColor=none;fillColor=none;align=left;verticalAlign=top;spacingLeft=4;spacingRight=4;overflow=hidden;rotatable=0;points=[[0,0.5],[1,0.5]];portConstraint=eastwest;" vertex="1" parent="cfzzELMnldwmsjJMNl_W-19">
          <mxGeometry y="92" width="160" height="26" as="geometry" />
        </mxCell>
        <mxCell id="cfzzELMnldwmsjJMNl_W-29" value="WHITE" style="text;strokeColor=none;fillColor=none;align=left;verticalAlign=top;spacingLeft=4;spacingRight=4;overflow=hidden;rotatable=0;points=[[0,0.5],[1,0.5]];portConstraint=eastwest;" vertex="1" parent="cfzzELMnldwmsjJMNl_W-19">
          <mxGeometry y="118" width="160" height="26" as="geometry" />
        </mxCell>
        <mxCell id="cfzzELMnldwmsjJMNl_W-32" value="ORANGE" style="text;strokeColor=none;fillColor=none;align=left;verticalAlign=top;spacingLeft=4;spacingRight=4;overflow=hidden;rotatable=0;points=[[0,0.5],[1,0.5]];portConstraint=eastwest;" vertex="1" parent="cfzzELMnldwmsjJMNl_W-19">
          <mxGeometry y="144" width="160" height="26" as="geometry" />
        </mxCell>
        <mxCell id="cfzzELMnldwmsjJMNl_W-35" value="CYAN" style="text;strokeColor=none;fillColor=none;align=left;verticalAlign=top;spacingLeft=4;spacingRight=4;overflow=hidden;rotatable=0;points=[[0,0.5],[1,0.5]];portConstraint=eastwest;" vertex="1" parent="cfzzELMnldwmsjJMNl_W-19">
          <mxGeometry y="170" width="160" height="26" as="geometry" />
        </mxCell>
        <mxCell id="cfzzELMnldwmsjJMNl_W-38" value="EMPTY" style="text;strokeColor=none;fillColor=none;align=left;verticalAlign=top;spacingLeft=4;spacingRight=4;overflow=hidden;rotatable=0;points=[[0,0.5],[1,0.5]];portConstraint=eastwest;" vertex="1" parent="cfzzELMnldwmsjJMNl_W-19">
          <mxGeometry y="196" width="160" height="26" as="geometry" />
        </mxCell>
        <mxCell id="cfzzELMnldwmsjJMNl_W-39" value="BLOCKED" style="text;strokeColor=none;fillColor=none;align=left;verticalAlign=top;spacingLeft=4;spacingRight=4;overflow=hidden;rotatable=0;points=[[0,0.5],[1,0.5]];portConstraint=eastwest;" vertex="1" parent="cfzzELMnldwmsjJMNl_W-19">
          <mxGeometry y="222" width="160" height="26" as="geometry" />
        </mxCell>
        <mxCell id="cfzzELMnldwmsjJMNl_W-49" value="" style="edgeStyle=orthogonalEdgeStyle;rounded=0;orthogonalLoop=1;jettySize=auto;html=1;entryX=1;entryY=0.5;entryDx=0;entryDy=0;" edge="1" parent="WIyWlLk6GJQsqaUBKTNV-1" source="cfzzELMnldwmsjJMNl_W-23" target="j5X3VHeK19DhDlfcmWfR-11">
          <mxGeometry relative="1" as="geometry" />
        </mxCell>
      </root>
    </mxGraphModel>
  </diagram>
</mxfile>
